<svg width="45" height="45" viewBox="0 0 45 45" fill="none" xmlns="http://www.w3.org/2000/svg">
<path d="M13.0762 37.4514C12.9225 37.6032 13.1062 37.8526 13.2956 37.7495C18.15 35.1245 24.7012 31.5789 30.2381 28.5714C30.2641 28.5574 30.2864 28.5374 30.3032 28.5132C30.32 28.4889 30.3309 28.4611 30.3349 28.4318C30.3389 28.4026 30.336 28.3728 30.3263 28.3449C30.3167 28.3171 30.3006 28.2918 30.2793 28.2714L26.3793 24.4314C26.3619 24.4138 26.3412 24.3998 26.3183 24.3903C26.2955 24.3808 26.271 24.3759 26.2462 24.3759C26.2215 24.3759 26.197 24.3808 26.1741 24.3903C26.1513 24.3998 26.1305 24.4138 26.1131 24.4314L13.0762 37.4514ZM26.1018 20.2051C26.137 20.24 26.1845 20.2596 26.234 20.2596C26.2836 20.2596 26.3311 20.24 26.3662 20.2051L30.27 16.3051C30.2907 16.2845 30.3064 16.2593 30.3157 16.2315C30.325 16.2037 30.3276 16.1742 30.3234 16.1452C30.3192 16.1162 30.3083 16.0886 30.2916 16.0646C30.2748 16.0406 30.2526 16.0209 30.2268 16.007L28.3143 14.9757L13.0162 6.72198C12.8268 6.61886 12.6412 6.86823 12.795 7.02198L26.1018 20.2051ZM5.62496 5.99261C5.62496 5.55761 5.69059 5.19198 5.80496 4.89198C5.92309 4.58261 6.31496 4.55823 6.55121 4.79261L24.1106 22.1907C24.1282 22.2082 24.1421 22.2289 24.1516 22.2517C24.1611 22.2746 24.166 22.2991 24.166 22.3239C24.166 22.3486 24.1611 22.3731 24.1516 22.396C24.1421 22.4188 24.1282 22.4396 24.1106 22.457L6.48746 40.0257C6.22871 40.2864 5.79934 40.2226 5.71496 39.8664C5.65214 39.5851 5.62194 39.2976 5.62496 39.0095V5.99261ZM33.165 26.9795C33.1295 26.9986 33.0889 27.0059 33.0491 27.0001C33.0092 26.9944 32.9723 26.976 32.9437 26.9476L28.3725 22.4476C28.3549 22.4302 28.3409 22.4094 28.3314 22.3866C28.3219 22.3637 28.317 22.3392 28.317 22.3145C28.317 22.2897 28.3219 22.2652 28.3314 22.2424C28.3409 22.2195 28.3549 22.1988 28.3725 22.1814L32.9681 17.612C32.997 17.5835 33.0344 17.5652 33.0746 17.5598C33.1149 17.5544 33.1558 17.5622 33.1912 17.582C35.817 19.0195 38.4483 20.447 41.085 21.8645C41.1182 21.8829 41.145 21.9111 41.1618 21.9451C41.2418 22.1264 41.2678 22.3269 41.2368 22.5226C41.2327 22.5494 41.2222 22.5748 41.2062 22.5966C41.1903 22.6185 41.1692 22.6362 41.145 22.6482C40.6106 22.9295 38.82 23.9045 36.3225 25.262L36.3075 25.2695L33.165 26.9795Z" fill="#A00000"/>
</svg>
