<svg width="45" height="45" viewBox="0 0 45 45" fill="none" xmlns="http://www.w3.org/2000/svg">
<path d="M31.9687 38.025C30.1312 39.8063 28.1249 39.525 26.1937 38.6813C24.1499 37.8188 22.2749 37.7812 20.1187 38.6813C17.4187 39.8438 15.9937 39.5063 14.3812 38.025C5.23119 28.5938 6.58119 14.2313 16.9687 13.7063C19.4999 13.8375 21.2624 15.0938 22.7437 15.2063C24.9562 14.7563 27.0749 13.4625 29.4374 13.6313C32.2687 13.8563 34.4062 14.9812 35.8124 17.0063C29.9624 20.5125 31.3499 28.2188 36.7124 30.375C35.6437 33.1875 34.2562 35.9813 31.9499 38.0438L31.9687 38.025ZM22.5562 13.5938C22.2749 9.4125 25.6687 5.9625 29.5687 5.625C30.1124 10.4625 25.1812 14.0625 22.5562 13.5938Z" fill="#A00000"/>
</svg>
