<svg width="38" height="37" viewBox="0 0 38 37" fill="none" xmlns="http://www.w3.org/2000/svg">
<rect x="0.5" width="37" height="37" rx="18.5" fill="black"/>
<path d="M19 11.25C19.69 11.25 20.25 11.81 20.25 12.5V17.25H25C25.3315 17.25 25.6495 17.3817 25.8839 17.6161C26.1183 17.8505 26.25 18.1685 26.25 18.5C26.25 18.8315 26.1183 19.1495 25.8839 19.3839C25.6495 19.6183 25.3315 19.75 25 19.75H20.25V24.5C20.25 24.8315 20.1183 25.1495 19.8839 25.3839C19.6495 25.6183 19.3315 25.75 19 25.75C18.6685 25.75 18.3505 25.6183 18.1161 25.3839C17.8817 25.1495 17.75 24.8315 17.75 24.5V19.75H13C12.6685 19.75 12.3505 19.6183 12.1161 19.3839C11.8817 19.1495 11.75 18.8315 11.75 18.5C11.75 18.1685 11.8817 17.8505 12.1161 17.6161C12.3505 17.3817 12.6685 17.25 13 17.25H17.75V12.5C17.75 11.81 18.31 11.25 19 11.25Z" fill="#DDDDDD"/>
</svg>
