<svg width="55" height="55" viewBox="0 0 55 55" fill="none" xmlns="http://www.w3.org/2000/svg">
<path d="M6.875 50.4163V34.3747H48.125V50.4163H6.875ZM11.4583 29.7913V18.333H25.2083V15.0101C24.5208 14.5518 23.967 13.9979 23.5469 13.3486C23.1267 12.6993 22.9167 11.9163 22.9167 10.9997C22.9167 10.4268 23.0312 9.86301 23.2604 9.30842C23.4896 8.75384 23.8333 8.24815 24.2917 7.79134L27.5 4.58301L30.7083 7.79134C31.1667 8.24967 31.5104 8.75537 31.7396 9.30842C31.9688 9.86148 32.0833 10.4252 32.0833 10.9997C32.0833 11.9163 31.8733 12.6993 31.4531 13.3486C31.033 13.9979 30.4792 14.5518 29.7917 15.0101V18.333H43.5417V29.7913H11.4583Z" fill="#A00000"/>
</svg>
