<svg width="55" height="55" viewBox="0 0 55 55" fill="none" xmlns="http://www.w3.org/2000/svg">
<path d="M32.0947 6.875V48.125H6.88639C6.27861 48.125 5.69571 47.8836 5.26594 47.4538C4.83617 47.024 4.59473 46.4411 4.59473 45.8333V33.2292C6.1142 33.2292 7.57143 32.6256 8.64586 31.5511C9.72029 30.4767 10.3239 29.0195 10.3239 27.5C10.3239 25.9805 9.72029 24.5233 8.64586 23.4489C7.57143 22.3744 6.1142 21.7708 4.59473 21.7708V9.16667C4.59473 8.55888 4.83617 7.97598 5.26594 7.54621C5.69571 7.11644 6.27861 6.875 6.88639 6.875H32.0947ZM36.6781 6.875H48.1364C48.7442 6.875 49.3271 7.11644 49.7568 7.54621C50.1866 7.97598 50.4281 8.55888 50.4281 9.16667V21.7708C48.9086 21.7708 47.4513 22.3744 46.3769 23.4489C45.3025 24.5233 44.6989 25.9805 44.6989 27.5C44.6989 29.0195 45.3025 30.4767 46.3769 31.5511C47.4513 32.6256 48.9086 33.2292 50.4281 33.2292V45.8333C50.4281 46.4411 50.1866 47.024 49.7568 47.4538C49.3271 47.8836 48.7442 48.125 48.1364 48.125H36.6781V6.875Z" fill="#A00000"/>
</svg>
