<svg width="55" height="55" viewBox="0 0 55 55" fill="none" xmlns="http://www.w3.org/2000/svg">
<path d="M15.4686 5.15625C13.8873 5.15625 12.604 6.43958 12.604 8.02083V21.1979C12.604 24.6927 13.9923 28.0443 16.4635 30.5155C18.9347 32.9867 22.2863 34.375 25.7811 34.375V46.4062H19.2498C18.794 46.4062 18.3568 46.5873 18.0345 46.9097C17.7122 47.232 17.5311 47.6692 17.5311 48.125C17.5311 48.5808 17.7122 49.018 18.0345 49.3403C18.3568 49.6627 18.794 49.8438 19.2498 49.8438H35.7498C36.2057 49.8438 36.6428 49.6627 36.9652 49.3403C37.2875 49.018 37.4686 48.5808 37.4686 48.125C37.4686 47.6692 37.2875 47.232 36.9652 46.9097C36.6428 46.5873 36.2057 46.4062 35.7498 46.4062H29.2186V34.375C32.7134 34.375 36.065 32.9867 38.5362 30.5155C41.0074 28.0443 42.3957 24.6927 42.3957 21.1979V8.02083C42.3957 6.43958 41.1123 5.15625 39.5311 5.15625H15.4686Z" fill="#A00000"/>
</svg>
