<svg width="55" height="55" viewBox="0 0 55 55" fill="none" xmlns="http://www.w3.org/2000/svg">
<path d="M34.3866 4.59051C35.9956 4.59055 37.5763 5.01414 38.9698 5.8187C40.3633 6.62326 41.5204 7.78044 42.3249 9.17394C43.1295 10.5674 43.553 12.1482 43.553 13.7572C43.553 15.3663 43.1294 16.947 42.3249 18.3405H52.7199V22.9238H48.1366V45.8405C48.1366 46.4483 47.8951 47.0312 47.4653 47.461C47.0356 47.8907 46.4527 48.1322 45.8449 48.1322H9.17822C8.57044 48.1322 7.98754 47.8907 7.55777 47.461C7.128 47.0312 6.88656 46.4483 6.88656 45.8405V22.9238H2.30322V18.3405H12.6959C11.5563 16.3714 11.1896 14.0488 11.6672 11.8244C12.1448 9.59992 13.4326 7.63258 15.2802 6.30485C17.1277 4.97713 19.403 4.38392 21.6636 4.64056C23.9242 4.8972 26.0086 5.98534 27.5116 7.69343C28.3697 6.71612 29.4269 5.93363 30.6122 5.39846C31.7976 4.86329 33.0837 4.58781 34.3843 4.59051M29.8009 22.9238H25.2176V45.8405H29.8009V22.9238ZM20.6343 9.17384C19.4503 9.17664 18.3134 9.63746 17.4617 10.4598C16.6099 11.2821 16.1094 12.4021 16.065 13.5852C16.0206 14.7682 16.4357 15.9226 17.2233 16.8065C18.011 17.6904 19.1101 18.2352 20.2905 18.3268L20.6343 18.3405H25.2176V13.7572C25.2176 12.6619 24.8255 11.6028 24.1121 10.7717C23.3987 9.94063 22.4113 9.39249 21.3286 9.22655L20.9757 9.1853L20.6343 9.17384ZM34.3843 9.17384C33.2279 9.17348 32.1142 9.61019 31.2663 10.3964C30.4185 11.1827 29.8991 12.2604 29.8124 13.4134L29.8009 13.7572V18.3405H34.3843C35.5402 18.3403 36.6533 17.9033 37.5007 17.1171C38.3481 16.3309 38.8672 15.2536 38.9538 14.1009L38.9676 13.7572C38.9676 12.5416 38.4847 11.3758 37.6252 10.5163C36.7656 9.65673 35.5998 9.17384 34.3843 9.17384Z" fill="#A00000"/>
</svg>
