<svg width="50" height="50" viewBox="0 0 50 50" fill="none" xmlns="http://www.w3.org/2000/svg">
<path d="M11.15 12.9004L12.5 18.6504L11.15 24.3754L16.175 27.4754L19.25 32.5004L25 31.1504L30.75 32.5004L33.825 27.4754L38.85 24.3754L37.5 18.6504L38.85 12.9004L33.85 9.80039L30.75 4.77539L25 6.15039L19.275 4.80039L16.15 9.80039L11.15 12.9004ZM25.025 28.7504C22.3728 28.7504 19.8293 27.6968 17.9539 25.8215C16.0786 23.9461 15.025 21.4026 15.025 18.7504C15.025 16.0982 16.0786 13.5547 17.9539 11.6793C19.8293 9.80396 22.3728 8.75039 25.025 8.75039C30.525 8.75039 35 13.2254 35 18.7254C35 24.2754 30.525 28.7504 25.025 28.7504ZM24.975 26.2504C20.825 26.2504 17.5 22.9004 17.5 18.7504C17.5 14.6254 20.825 11.2504 24.975 11.2504C29.125 11.2504 32.5 14.6254 32.5 18.7504C32.5 22.9004 29.125 26.2504 24.975 26.2504ZM34.575 29.0004L31.375 34.6004L26.175 33.4254L32.5 48.0004L36 42.5004H42.25L34.575 29.0004ZM15.325 29.1754L18.45 34.8004L23.775 33.5254L17.5 48.0004L14 42.5004H7.75L15.325 29.1754Z" fill="#A00000"/>
</svg>
