<svg width="50" height="50" viewBox="0 0 50 50" fill="none" xmlns="http://www.w3.org/2000/svg">
<path d="M23.4166 22.4864C28.3718 22.4864 32.3888 18.4694 32.3888 13.5142C32.3888 8.55899 28.3718 4.54199 23.4166 4.54199C18.4613 4.54199 14.4443 8.55899 14.4443 13.5142C14.4443 18.4694 18.4613 22.4864 23.4166 22.4864Z" fill="#A00000"/>
<path d="M29.1667 38.8887H38.889V40.8331H29.1667V38.8887Z" fill="#A00000"/>
<path d="M20.8334 41.667V45.8337C20.8334 46.202 20.9797 46.5553 21.2402 46.8158C21.5006 47.0762 21.8539 47.2225 22.2223 47.2225H45.8334C46.2017 47.2225 46.555 47.0762 46.8155 46.8158C47.0759 46.5553 47.2223 46.202 47.2223 45.8337V31.9448C47.2223 31.5764 47.0759 31.2231 46.8155 30.9627C46.555 30.7022 46.2017 30.5559 45.8334 30.5559H36.1112V28.5142C36.1112 28.1459 35.9648 27.7926 35.7044 27.5321C35.4439 27.2717 35.0906 27.1253 34.7223 27.1253C34.3539 27.1253 34.0006 27.2717 33.7402 27.5321C33.4797 27.7926 33.3334 28.1459 33.3334 28.5142V30.5559H30.5556V25.5837C28.1955 25.1975 25.8082 25.0024 23.4167 25.0003C18.1428 24.9779 12.928 26.1109 8.13894 28.3198C7.35072 28.6917 6.68575 29.282 6.22293 30.0206C5.76011 30.7591 5.51887 31.6149 5.52783 32.4864V41.667H20.8334ZM44.4445 44.4448H23.6112V33.3337H33.3334V33.917C33.3334 34.2853 33.4797 34.6386 33.7402 34.8991C34.0006 35.1596 34.3539 35.3059 34.7223 35.3059C35.0906 35.3059 35.4439 35.1596 35.7044 34.8991C35.9648 34.6386 36.1112 34.2853 36.1112 33.917V33.3337H44.4445V44.4448Z" fill="#A00000"/>
</svg>
