<svg width="50" height="50" viewBox="0 0 50 50" fill="none" xmlns="http://www.w3.org/2000/svg">
<path d="M14.5833 45.8337V26.7712C12.8124 26.285 11.3284 25.3128 10.1312 23.8545C8.93395 22.3962 8.33464 20.6948 8.33325 18.7503V4.16699H12.4999V18.7503H14.5833V4.16699H18.7499V18.7503H20.8333V4.16699H24.9999V18.7503C24.9999 20.6948 24.4013 22.3962 23.2041 23.8545C22.0069 25.3128 20.5221 26.285 18.7499 26.7712V45.8337H14.5833ZM35.4166 45.8337V29.167H29.1666V14.5837C29.1666 11.7017 30.1826 9.24546 32.2145 7.21491C34.2464 5.18435 36.7027 4.16838 39.5833 4.16699V45.8337H35.4166Z" fill="#A00000"/>
</svg>
