<svg width="50" height="50" viewBox="0 0 50 50" fill="none" xmlns="http://www.w3.org/2000/svg">
<path d="M6.25 29.167C6.25 31.8753 7.91667 34.167 10.4167 35.0003V41.667H6.25V45.8337H18.75V41.667H14.5833V35.0003C17.0833 34.167 18.75 31.8753 18.75 29.167V12.5003H6.25V29.167ZM10.4167 16.667H14.5833V22.917H10.4167V16.667ZM42.9167 17.7087L40.8333 17.0837C40.2083 16.8753 39.5833 16.042 39.5833 15.2087V6.25033C39.5833 5.20866 38.5417 4.16699 37.5 4.16699H31.25C30 4.16699 29.1667 5.20866 29.1667 6.25033V15.2087C29.1667 16.042 28.5417 16.8753 27.7083 17.292L25.8333 17.917C24.1667 18.542 22.9167 20.0003 22.9167 21.8753V41.667C22.9167 43.9587 24.7917 45.8337 27.0833 45.8337H41.6667C43.9583 45.8337 45.8333 43.9587 45.8333 41.667V21.667C45.8333 20.0003 44.7917 18.3337 42.9167 17.7087ZM33.3333 8.33366H35.4167V10.417H33.3333V8.33366ZM27.0833 21.667L28.9583 21.042C31.6667 20.2087 33.3333 17.917 33.3333 15.2087V14.5837H35.4167V15.2087C35.4167 17.917 37.0833 20.2087 39.5833 21.042L41.6667 21.667V25.0003H27.0833V21.667ZM41.6667 41.667H27.0833V37.5003H41.6667V41.667Z" fill="#A00000"/>
</svg>
