<svg width="50" height="50" viewBox="0 0 50 50" fill="none" xmlns="http://www.w3.org/2000/svg">
<g clip-path="url(#clip0_60_3116)">
<path d="M17.1875 9.375V3.125C17.1875 2.7106 17.3521 2.31317 17.6452 2.02015C17.9382 1.72712 18.3356 1.5625 18.75 1.5625C19.1644 1.5625 19.5618 1.72712 19.8549 2.02015C20.1479 2.31317 20.3125 2.7106 20.3125 3.125V9.375C20.3125 9.7894 20.1479 10.1868 19.8549 10.4799C19.5618 10.7729 19.1644 10.9375 18.75 10.9375C18.3356 10.9375 17.9382 10.7729 17.6452 10.4799C17.3521 10.1868 17.1875 9.7894 17.1875 9.375ZM25 10.9375C25.4144 10.9375 25.8118 10.7729 26.1049 10.4799C26.3979 10.1868 26.5625 9.7894 26.5625 9.375V3.125C26.5625 2.7106 26.3979 2.31317 26.1049 2.02015C25.8118 1.72712 25.4144 1.5625 25 1.5625C24.5856 1.5625 24.1882 1.72712 23.8951 2.02015C23.6021 2.31317 23.4375 2.7106 23.4375 3.125V9.375C23.4375 9.7894 23.6021 10.1868 23.8951 10.4799C24.1882 10.7729 24.5856 10.9375 25 10.9375ZM31.25 10.9375C31.6644 10.9375 32.0618 10.7729 32.3549 10.4799C32.6479 10.1868 32.8125 9.7894 32.8125 9.375V3.125C32.8125 2.7106 32.6479 2.31317 32.3549 2.02015C32.0618 1.72712 31.6644 1.5625 31.25 1.5625C30.8356 1.5625 30.4382 1.72712 30.1451 2.02015C29.8521 2.31317 29.6875 2.7106 29.6875 3.125V9.375C29.6875 9.7894 29.8521 10.1868 30.1451 10.4799C30.4382 10.7729 30.8356 10.9375 31.25 10.9375ZM49.6875 17.8125C49.4389 17.481 49.0687 17.2618 48.6585 17.2032C48.2482 17.1446 47.8315 17.2514 47.5 17.5L43.75 20.3125V15.625C43.75 15.2106 43.5854 14.8132 43.2924 14.5201C42.9993 14.2271 42.6019 14.0625 42.1875 14.0625H7.81251C7.39811 14.0625 7.00068 14.2271 6.70765 14.5201C6.41463 14.8132 6.25001 15.2106 6.25001 15.625V20.3125L2.50001 17.5C2.16849 17.2514 1.75177 17.1446 1.34154 17.2032C0.9313 17.2618 0.561147 17.481 0.312506 17.8125C0.0638659 18.144 -0.0428948 18.5607 0.0157103 18.971C0.0743154 19.3812 0.293486 19.7514 0.625006 20L6.25001 24.2188V35.9375C6.25001 37.5951 6.90849 39.1848 8.08059 40.3569C9.25269 41.529 10.8424 42.1875 12.5 42.1875H37.5C39.1576 42.1875 40.7473 41.529 41.9194 40.3569C43.0915 39.1848 43.75 37.5951 43.75 35.9375V24.2188L49.375 20C49.5392 19.8769 49.6774 19.7226 49.782 19.5461C49.8865 19.3695 49.9553 19.1741 49.9843 18.971C50.0133 18.7678 50.002 18.561 49.9511 18.3622C49.9002 18.1634 49.8106 17.9767 49.6875 17.8125Z" fill="#A00000"/>
</g>
<defs>
<clipPath id="clip0_60_3116">
<rect width="50" height="50" fill="white"/>
</clipPath>
</defs>
</svg>
