<svg width="30" height="30" viewBox="0 0 30 30" fill="none" xmlns="http://www.w3.org/2000/svg">
<path d="M15 3.75V26.25C10.625 26.25 7.37438 20.525 7.37438 20.525H3.75C3.41848 20.525 3.10054 20.3933 2.86612 20.1589C2.6317 19.9245 2.5 19.6065 2.5 19.275V10.6313C2.5 10.2997 2.6317 9.98179 2.86612 9.74737C3.10054 9.51295 3.41848 9.38125 3.75 9.38125H7.37438C7.37438 9.38125 10.625 3.75 15 3.75Z" fill="#A00000" stroke="#A00000" stroke-width="2" stroke-linejoin="round"/>
<path d="M20 9.375C20.3905 9.72446 20.7432 10.1139 21.0525 10.5369C21.9971 11.8329 22.5042 13.3962 22.5 15C22.5 16.6588 21.9713 18.1919 21.0763 19.4313C20.7613 19.8666 20.4005 20.2668 20 20.625" stroke="#A00000" stroke-width="2" stroke-linecap="round" stroke-linejoin="round"/>
<path d="M21.3975 25.7411C25.0525 23.5598 27.5 19.5654 27.5 14.9998C27.5 10.5048 25.1275 6.5648 21.5668 4.3623" stroke="#A00000" stroke-width="2" stroke-linecap="round"/>
</svg>
