<svg width="30" height="30" viewBox="0 0 30 30" fill="none" xmlns="http://www.w3.org/2000/svg">
<path d="M23.75 12.9375V6.25H17.5V8.75H21.25V12.0625L16.9 17.5H12.5V11.25H2.5V20H5C5 22.075 6.675 23.75 8.75 23.75C10.825 23.75 12.5 22.075 12.5 20H18.1L23.75 12.9375ZM8.75 21.25C8.0625 21.25 7.5 20.6875 7.5 20H10C10 20.6875 9.4375 21.25 8.75 21.25Z" fill="#A00000"/>
<path d="M6.25 7.5H12.5V10H6.25V7.5ZM23.75 16.25C21.675 16.25 20 17.925 20 20C20 22.075 21.675 23.75 23.75 23.75C25.825 23.75 27.5 22.075 27.5 20C27.5 17.925 25.825 16.25 23.75 16.25ZM23.75 21.25C23.0625 21.25 22.5 20.6875 22.5 20C22.5 19.3125 23.0625 18.75 23.75 18.75C24.4375 18.75 25 19.3125 25 20C25 20.6875 24.4375 21.25 23.75 21.25Z" fill="#A00000"/>
</svg>
