<svg width="30" height="30" viewBox="0 0 30 30" fill="none" xmlns="http://www.w3.org/2000/svg">
<g clip-path="url(#clip0_93_4520)">
<path d="M15 0C12.0333 0 9.13319 0.879735 6.66645 2.52796C4.19972 4.17618 2.27713 6.51886 1.14181 9.25975C0.00649926 12.0006 -0.290551 15.0166 0.288228 17.9264C0.867006 20.8361 2.29562 23.5088 4.3934 25.6066C6.49119 27.7044 9.16394 29.133 12.0737 29.7118C14.9834 30.2906 17.9994 29.9935 20.7403 28.8582C23.4812 27.7229 25.8238 25.8003 27.472 23.3336C29.1203 20.8668 30 17.9667 30 15C30 11.0218 28.4197 7.20644 25.6066 4.3934C22.7936 1.58035 18.9783 0 15 0ZM16.5 24H13.5V21H16.5V24ZM20.565 12.6C20.459 12.9936 20.292 13.3681 20.07 13.71C19.8623 14.0116 19.6207 14.2884 19.35 14.535L18.54 15.255C18.225 15.525 17.925 15.78 17.67 16.035C17.3951 16.2789 17.1576 16.562 16.965 16.875C16.7446 17.2195 16.5871 17.6004 16.5 18C16.3788 18.4905 16.3233 18.9949 16.335 19.5H13.62C13.6114 18.8733 13.6465 18.2468 13.725 17.625C13.7854 17.1595 13.9116 16.7049 14.1 16.275C14.2568 15.9128 14.4638 15.5744 14.715 15.27C14.9744 14.951 15.266 14.6594 15.585 14.4C15.84 14.16 16.095 13.95 16.35 13.74C16.5871 13.5427 16.8032 13.3215 16.995 13.08C17.1921 12.8334 17.3444 12.5542 17.445 12.255C17.5656 11.9081 17.6216 11.5421 17.61 11.175C17.6167 10.7318 17.5298 10.2923 17.355 9.885C17.21 9.56976 17.0022 9.28743 16.7442 9.0553C16.4863 8.82317 16.1837 8.64613 15.855 8.535C15.614 8.44758 15.3611 8.39701 15.105 8.385C14.668 8.35241 14.2297 8.4285 13.8293 8.60648C13.4288 8.78446 13.0787 9.05879 12.81 9.405C12.2728 10.2106 12.0098 11.168 12.06 12.135H9.24001C9.22537 11.2764 9.36771 10.4224 9.66001 9.615C9.91793 8.89204 10.327 8.23238 10.86 7.68C11.4118 7.14265 12.0643 6.71956 12.78 6.435C13.5761 6.13791 14.4203 5.99044 15.27 6C16.0042 5.99406 16.7342 6.11066 17.43 6.345C18.0617 6.55756 18.6471 6.88845 19.155 7.32C19.6543 7.76015 20.0533 8.30237 20.325 8.91C20.6233 9.59575 20.7716 10.3373 20.76 11.085C20.7714 11.5969 20.7057 12.1077 20.565 12.6Z" fill="white"/>
</g>
<defs>
<clipPath id="clip0_93_4520">
<rect width="30" height="30" fill="white"/>
</clipPath>
</defs>
</svg>
