<svg width="30" height="30" viewBox="0 0 30 30" fill="none" xmlns="http://www.w3.org/2000/svg">
<path d="M15 16.25C17.7614 16.25 20 14.0114 20 11.25C20 8.48858 17.7614 6.25 15 6.25C12.2386 6.25 10 8.48858 10 11.25C10 14.0114 12.2386 16.25 15 16.25Z" fill="white"/>
<path d="M21.25 15C23.3211 15 25 13.3211 25 11.25C25 9.17893 23.3211 7.5 21.25 7.5C19.1789 7.5 17.5 9.17893 17.5 11.25C17.5 13.3211 19.1789 15 21.25 15Z" fill="white"/>
<path d="M8.75 15C10.8211 15 12.5 13.3211 12.5 11.25C12.5 9.17893 10.8211 7.5 8.75 7.5C6.67893 7.5 5 9.17893 5 11.25C5 13.3211 6.67893 15 8.75 15Z" fill="white"/>
<path fill-rule="evenodd" clip-rule="evenodd" d="M21.9614 22.5004H24.8689C25.6089 22.5004 26.1752 21.8629 25.9964 21.1454C25.5352 19.3079 24.3102 16.2504 21.2502 16.2504C20.1427 16.2504 19.2752 16.6504 18.5977 17.2504C20.4827 18.4716 21.4577 20.6129 21.9614 22.5004ZM11.4027 17.2504C10.6765 16.594 9.72891 16.2367 8.75018 16.2504C5.69018 16.2504 4.46518 19.3079 4.00393 21.1454C3.82518 21.8629 4.39143 22.5004 5.13143 22.5004H8.04018C8.54393 20.6129 9.51768 18.4716 11.4027 17.2504Z" fill="white"/>
<path d="M15.0002 17.5C19.6364 17.5 20.8327 21.6263 21.1427 23.7575C21.2427 24.4413 20.6902 25 20.0002 25H10.0002C9.31018 25 8.75893 24.4413 8.85768 23.7575C9.16768 21.6263 10.3639 17.5 15.0002 17.5Z" fill="white"/>
</svg>
